<svg xmlns="http://www.w3.org/2000/svg" version="1.1" xmlns:xlink="http://www.w3.org/1999/xlink" viewBox="0 0 200 200"><rect width="200" height="200" fill="url('#gradient')"></rect><defs><linearGradient id="gradient" gradientTransform="rotate(208 0.5 0.5)"><stop offset="0%" stop-color="#7c3542"></stop><stop offset="100%" stop-color="#497697"></stop></linearGradient></defs><g><g fill="#ffffff" transform="matrix(2.7959044368600683,0,0,2.7959044368600683,10.741922011045872,118.17240142073648)" stroke="#848a9b" stroke-width="0.25"><path d="M9.08-7.79L3.74-5.95L9.08-4.15L9.08-1.15L0.45-4.67L0.45-7.27L9.08-10.78L9.08-7.79ZM20.18 0L19.35-2.66L14.65-2.66L13.83 0L10.17 0L15.38-14.22L18.60-14.22L23.86 0L20.18 0ZM16.99-10.23L15.47-5.30L18.53-5.30L16.99-10.23ZM35.71-14.22L30.85 1.22L28.52 1.22L33.37-14.22L35.71-14.22ZM46.55 0L41.88 0L41.88-14.22L46.46-14.22Q48.34-14.22 49.84-13.36Q51.35-12.51 52.19-10.95Q53.04-9.39 53.05-7.46L53.05-7.46L53.05-6.81Q53.05-4.85 52.22-3.31Q51.40-1.76 49.90-0.88Q48.40-0.01 46.55 0L46.55 0ZM46.46-11.57L45.30-11.57L45.30-2.64L46.49-2.64Q47.97-2.64 48.76-3.69Q49.55-4.74 49.55-6.81L49.55-6.81L49.55-7.42Q49.55-9.48 48.76-10.53Q47.97-11.57 46.46-11.57L46.46-11.57ZM54.81-4.13L60.13-5.98L54.81-7.78L54.81-10.77L63.40-7.26L63.40-4.66L54.81-1.14L54.81-4.13Z"></path></g></g></svg>